<svg width="1024" height="1024" viewBox="0 0 1024 1024" fill="none" xmlns="http://www.w3.org/2000/svg">
  <defs>
    <linearGradient id="metal" x1="314" y1="224" x2="732" y2="804" gradientUnits="userSpaceOnUse">
      <stop stop-color="#FAFCFD"/>
      <stop offset="0.24" stop-color="#9DA8AE"/>
      <stop offset="0.47" stop-color="#EEF3F5"/>
      <stop offset="0.72" stop-color="#737E84"/>
      <stop offset="1" stop-color="#D9E1E4"/>
    </linearGradient>
    <filter id="glow" x="194" y="128" width="636" height="768" filterUnits="userSpaceOnUse" color-interpolation-filters="sRGB">
      <feGaussianBlur stdDeviation="16"/>
    </filter>
  </defs>
  <path
    d="M386 232H638M414 232V396L292 674C256 756 316 844 406 844H618C708 844 768 756 732 674L610 396V232"
    stroke="#E8F0F2"
    stroke-opacity="0.18"
    stroke-width="76"
    stroke-linecap="round"
    stroke-linejoin="round"
    filter="url(#glow)"
  />
  <path
    d="M386 232H638M414 232V396L292 674C256 756 316 844 406 844H618C708 844 768 756 732 674L610 396V232"
    stroke="url(#metal)"
    stroke-width="54"
    stroke-linecap="round"
    stroke-linejoin="round"
  />
  <path d="M324 668H700" stroke="url(#metal)" stroke-width="42" stroke-linecap="round"/>
  <path
    d="M424 666C434 584 466 516 512 458C558 516 590 584 600 666"
    stroke="url(#metal)"
    stroke-width="38"
    stroke-linecap="round"
    stroke-linejoin="round"
  />
  <circle cx="512" cy="704" r="20" fill="#F4F8F9"/>
  <circle cx="576" cy="754" r="13" fill="#AAB5BA"/>
</svg>
